Format                           : MPEG-4
Format profile                   : Base Media / Version 2
Codec ID                         : mp42
File size                        : 902 MiB
Duration                         : 2h 4mn
Overall bit rate                 : 1 014 Kbps
Encoded date                     : UTC 2009-07-18 12:15:58
Tagged date                      : UTC 2009-07-18 17:22:23
Writing application              : HandBrake 0.9.3 2008112300

Video
ID                               : 1
Format                           : AVC
Format/Info                      : Advanced Video Codec
Format profile                   : Main@L4.0
Format settings, CABAC           : Yes
Format settings, ReFrames        : 3 frames
Codec ID                         : avc1
Codec ID/Info                    : Advanced Video Coding
Duration                         : 2h 4mn
Bit rate mode                    : Variable
Bit rate                         : 849 Kbps
Width                            : 718 pixels
Height                           : 480 pixels
Display aspect ratio             : 4/3
Frame rate mode                  : Variable
Frame rate                       : 23.976 fps
Minimum frame rate               : 14.986 fps
Maximum frame rate               : 120.000 fps
Resolution                       : 24 bits
Colorimetry                      : 4:2:0
Scan type                        : Progressive
Bits/(Pixel*Frame)               : 0.103
Stream size                      : 755 MiB (84%)
Writing library                  : x264 core 65


Audio
ID                               : 2
Format                           : AAC
Format/Info                      : Advanced Audio Codec
Format version                   : Version 4
Format profile                   : LC
Format settings, SBR             : No
Codec ID                         : 40
Duration                         : 2h 4mn
Bit rate mode                    : Variable
Bit rate                         : 160 Kbps
Maximum bit rate                 : 256 Kbps
Channel(s)                       : 2 channels
Channel positions                : L R
Sampling rate                    : 48.0 KHz
Resolution                       : 16 bits
Stream size                      : 142 MiB (16%)
Language                         : English
Encoded date                     : UTC 2009-07-18 12:15:59
Tagged date                      : UTC 2009-07-18 17:22:14

